<svg width="24" height="22" viewBox="0 0 24 22" fill="none" xmlns="http://www.w3.org/2000/svg">
<path d="M11.5106 17.5483L11.898 17.7826L17.4801 21.1588L17.4803 21.1589C17.9319 21.4322 18.4848 21.0315 18.3657 20.518L11.5106 17.5483ZM11.5106 17.5483L11.1228 17.7819M11.5106 17.5483L11.1228 17.7819M11.1228 17.7819L5.54073 21.1446L5.53939 21.1454M11.1228 17.7819L5.53939 21.1454M5.53939 21.1454C5.08779 21.4188 4.53486 21.0181 4.65399 20.5046L5.53939 21.1454ZM16.8861 14.1692L18.3656 20.5177L4.65407 20.5042L6.13359 14.1558L6.23629 13.7151L5.8943 13.4187L0.957827 9.14135L0.957564 9.14112C0.556258 8.79372 0.776815 8.14295 1.29286 8.1019L1.29286 8.10191L1.29682 8.10158L7.7936 7.55009L8.24384 7.51187L8.42048 7.09597L10.9627 1.11033L10.9639 1.10742C11.164 0.63086 11.8558 0.63086 12.0558 1.10742L12.0568 1.10977L14.599 7.10887L14.7755 7.52529L15.2261 7.56354L21.7229 8.11504L21.7269 8.11536C22.2429 8.1564 22.4635 8.80718 22.0621 9.15457L22.0619 9.1548L17.1254 13.4322L16.7834 13.7285L16.8861 14.1692Z" stroke="black" stroke-width="1.5"/>
</svg>
