<svg width="19" height="22" viewBox="0 0 19 22" fill="none" xmlns="http://www.w3.org/2000/svg">
<path d="M0.764612 18.5142L0.76469 18.516C0.818824 19.8256 1.58237 20.764 2.84537 21.1192L0.764612 18.5142ZM0.764612 18.5142C0.693482 16.8875 0.874607 15.3247 1.47063 13.8585L1.47083 13.858M0.764612 18.5142L1.47083 13.858M1.47083 13.858C1.85006 12.9232 2.36118 12.2099 3.16811 11.778C3.68031 11.5048 4.22595 11.3742 4.79738 11.3874L4.79738 11.3874M1.47083 13.858L4.79738 11.3874M4.79738 11.3874L4.80179 11.3875M4.79738 11.3874L4.80179 11.3875M4.80179 11.3875C4.80176 11.3875 4.80175 11.3875 4.80175 11.3875C4.80173 11.3877 4.82679 11.3901 4.88373 11.4118C4.94725 11.436 5.02111 11.4725 5.11098 11.5217L5.11293 11.5228L4.80179 11.3875ZM12.3297 12.0905L12.3294 12.0906C11.3129 12.7206 10.2589 13.0574 9.17702 13.0579C8.09564 13.0584 7.04142 12.7228 6.0239 12.0953C6.02354 12.0951 6.02318 12.0949 6.02283 12.0947L6.41659 11.4564L12.3297 12.0905ZM12.3297 12.0905C12.3679 12.0668 12.4078 12.0423 12.4492 12.0169C12.6611 11.8868 12.9096 11.7342 13.1397 11.5602C13.3598 11.3957 13.6146 11.3474 14.0244 11.4085L14.0256 11.4087M12.3297 12.0905L14.0256 11.4087M14.0256 11.4087C15.1946 11.581 16.0099 12.1994 16.5893 13.2611C17.1304 14.2565 17.3878 15.3559 17.5017 16.541C17.5607 17.1562 17.5886 17.7734 17.5824 18.3893C17.5643 19.9223 16.5407 21.0396 15.0011 21.2092L14.9926 21.2101M14.0256 11.4087L14.9926 21.2101M14.9926 21.2101L14.9841 21.2113M14.9926 21.2101L14.9841 21.2113M14.9841 21.2113C14.9223 21.2195 14.8686 21.2326 14.8291 21.2437C11.0419 21.2499 7.25451 21.25 3.46644 21.25M14.9841 21.2113L3.46644 21.25M3.46644 21.25C3.391 21.2349 3.32328 21.2221 3.26044 21.2102C3.10711 21.1812 2.9828 21.1576 2.84603 21.1194L3.46644 21.25Z" stroke="black" stroke-width="1.5"/>
<path d="M13.5824 5.29547L13.5824 5.29637C13.599 7.77748 11.5461 9.84645 9.04275 9.852L9.04192 9.85201C6.54448 9.86033 4.48053 7.79198 4.48053 5.31724C4.48053 2.80558 6.48604 0.769769 9.01422 0.7501C11.5242 0.73369 13.5685 2.75784 13.5824 5.29547ZM14.3324 5.29135C14.3518 8.19101 11.9603 10.5955 9.04442 10.602L9.00882 0.000118842C11.9376 -0.0192985 14.3162 2.34315 14.3324 5.29135Z" stroke="black" stroke-width="1.5"/>
</svg>
