<svg width="29" height="24" viewBox="0 0 29 24" fill="none" xmlns="http://www.w3.org/2000/svg">
<path d="M9.56537 19.5258L9.56545 19.5275C9.6233 20.927 10.4413 21.9316 11.79 22.3106L9.56537 19.5258ZM9.56537 19.5258C9.49018 17.8062 9.68155 16.152 10.3129 14.599L10.3131 14.5985M9.56537 19.5258L10.3131 14.5985M10.3131 14.5985C10.7151 13.6075 11.2592 12.8459 12.1216 12.3844C12.6678 12.0929 13.2502 11.9535 13.8599 11.9676L13.8599 11.9676M10.3131 14.5985L13.8599 11.9676M13.8599 11.9676L13.8662 11.9677M13.8599 11.9676L13.8662 11.9677M13.8662 11.9677C13.8658 11.9677 13.8659 11.9677 13.8664 11.9678C13.8701 11.9682 13.9005 11.9716 13.9646 11.996C14.0342 12.0225 14.114 12.062 14.2094 12.1143L14.2113 12.1153M13.8662 11.9677L14.2113 12.1153M14.2113 12.1153C14.4068 12.2218 14.5594 12.3226 14.735 12.4386C14.8612 12.522 14.9993 12.6133 15.1738 12.7202C16.2415 13.3786 17.3459 13.7297 18.4775 13.7292C19.6095 13.7287 20.7136 13.3764 21.7803 12.7153L21.7805 12.7151M14.2113 12.1153L21.7805 12.7151M21.7805 12.7151C21.8211 12.69 21.8635 12.664 21.9072 12.6371C22.1307 12.5 22.3906 12.3404 22.6314 12.1583C22.8756 11.9756 23.1569 11.9249 23.5953 11.9903L23.5965 11.9905M21.7805 12.7151L23.5965 11.9905M23.5965 11.9905C24.8433 12.1742 25.7135 12.8352 26.33 13.9649C26.9041 15.021 27.1765 16.1862 27.2969 17.4393C27.3593 18.0895 27.3888 18.7417 27.3823 19.3928C27.3629 21.0304 26.2674 22.2256 24.6237 22.4067L24.6152 22.4076M23.5965 11.9905L24.6152 22.4076M24.6152 22.4076L24.6067 22.4087M24.6152 22.4076L24.6067 22.4087M24.6067 22.4087C24.5412 22.4175 24.4845 22.4316 24.4436 22.4433C20.4465 22.4499 16.4493 22.4499 12.4514 22.4499M24.6067 22.4087L12.4514 22.4499M12.4514 22.4499C12.3715 22.4339 12.2996 22.4203 12.2326 22.4076C12.0696 22.3768 11.936 22.3515 11.7901 22.3107L12.4514 22.4499ZM8.81629 19.5585L8.81609 19.5585L8.81629 19.5585Z" stroke="black" stroke-width="1.5"/>
<path d="M23.1642 5.58408L23.1642 5.58498C23.1819 8.22425 20.9985 10.4244 18.3361 10.4303L18.3352 10.4303C15.6789 10.4391 13.484 8.23963 13.484 5.60726C13.484 2.93621 15.617 0.77101 18.3056 0.750106C20.9753 0.732637 23.1494 2.88565 23.1642 5.58408Z" stroke="black" stroke-width="1.5"/>
<path d="M6.77573 23.1999C6.51295 23.1453 6.24334 23.1044 5.98739 23.0327C4.33562 22.5686 3.2879 21.2922 3.21624 19.5585C3.13774 17.7634 3.33568 15.9956 4.01823 14.3165C4.45848 13.2313 5.09666 12.2962 6.16826 11.7228C6.82692 11.3713 7.53677 11.2007 8.27734 11.2178C8.5094 11.2212 8.75853 11.3406 8.97012 11.4567C9.31481 11.6444 9.59428 11.2519 9.92873 11.4567C9.92873 11.4567 10.8001 11.5999 12.8001 11.4567C12.584 11.4567 14.1475 10.991 14.4001 10.7999C14.8642 10.4518 17.4506 11.118 18 11.1999C19.5051 11.4218 20.6724 12.2928 21.3891 13.6067C22.0273 14.7807 22.3174 16.0536 22.4436 17.3675C22.5085 18.0433 22.5392 18.7224 22.5324 19.4015C22.5085 21.4253 21.6136 23.7781 19.6 23.9999C19.5489 24.0067 19.007 23.1794 18.9592 23.1931C14.8981 23.1999 10.8369 23.1999 6.77573 23.1999Z" fill="#EFEFF4"/>
<path d="M18.3141 5.57996C18.3346 8.63778 15.8126 11.1734 12.7377 11.1803C9.66623 11.1905 7.13397 8.65484 7.13397 5.60726C7.13397 2.52556 9.59797 0.0240145 12.7002 0.000125324C15.7887 -0.0203511 18.2971 2.47095 18.3141 5.57996Z" fill="#EFEFF4"/>
<path d="M0.765448 19.5258L0.765526 19.5275C0.823375 20.927 1.64132 21.9316 2.99009 22.3106L0.765448 19.5258ZM0.765448 19.5258C0.690258 17.8062 0.881621 16.152 1.51295 14.599L1.51315 14.5985M0.765448 19.5258L1.51315 14.5985M1.51315 14.5985C1.91515 13.6075 2.45928 12.8459 3.32163 12.3844C3.8679 12.0929 4.45026 11.9535 5.05999 11.9676L5.05999 11.9676M1.51315 14.5985L5.05999 11.9676M5.05999 11.9676L5.06623 11.9677M5.05999 11.9676L5.06623 11.9677M5.06623 11.9677C5.0659 11.9677 5.06596 11.9677 5.06643 11.9678C5.07021 11.9682 5.10055 11.9716 5.16466 11.996C5.23427 12.0225 5.31408 12.062 5.40942 12.1143L5.41137 12.1153M5.06623 11.9677L5.41137 12.1153M5.41137 12.1153C5.60688 12.2218 5.75945 12.3226 5.93503 12.4386C6.06125 12.522 6.19937 12.6133 6.37388 12.7202C7.44162 13.3786 8.54602 13.7297 9.67755 13.7292C10.8096 13.7287 11.9137 13.3764 12.9804 12.7153L12.9806 12.7151M5.41137 12.1153L12.9806 12.7151M12.9806 12.7151C13.0212 12.69 13.0635 12.664 13.1073 12.6371C13.3307 12.5 13.5907 12.3404 13.8315 12.1583C14.0757 11.9756 14.357 11.9249 14.7954 11.9903L14.7966 11.9905M12.9806 12.7151L14.7966 11.9905M14.7966 11.9905C16.0434 12.1742 16.9136 12.8352 17.5301 13.9649C18.1042 15.021 18.3766 16.1862 18.497 17.4393C18.5594 18.0895 18.5888 18.7417 18.5823 19.3928C18.563 21.0304 17.4675 22.2256 15.8238 22.4067L15.8153 22.4076M14.7966 11.9905L15.8153 22.4076M15.8153 22.4076L15.8068 22.4087M15.8153 22.4076L15.8068 22.4087M15.8068 22.4087C15.7412 22.4175 15.6845 22.4316 15.6437 22.4433C11.6466 22.4499 7.64936 22.4499 3.65143 22.4499M15.8068 22.4087L3.65143 22.4499M3.65143 22.4499C3.57162 22.4339 3.49966 22.4203 3.43267 22.4076C3.26966 22.3768 3.13606 22.3515 2.9902 22.3107L3.65143 22.4499ZM0.0163643 19.5585L0.0161636 19.5585L0.0163643 19.5585Z" stroke="black" stroke-width="1.5"/>
<path d="M14.3642 5.58408L14.3643 5.58498C14.3819 8.22425 12.1985 10.4244 9.53614 10.4303L9.53531 10.4303C6.87901 10.4391 4.68408 8.23963 4.68408 5.60726C4.68408 2.93621 6.81704 0.77101 9.50567 0.750106C12.1754 0.732637 14.3494 2.88565 14.3642 5.58408Z" stroke="black" stroke-width="1.5"/>
</svg>
