<svg width="29" height="29" viewBox="0 0 29 29" fill="none" xmlns="http://www.w3.org/2000/svg">
<rect width="29" height="29" rx="6" fill="#FBB500"/>
<path d="M9.0015 14.8372C9.0015 12.8756 9.00209 10.914 9.0012 8.95242C9.0006 8.14041 9.35132 7.54286 10.076 7.17564C10.3325 7.04595 10.6092 7.00102 10.8955 7.00102C12.7943 7.00102 14.6932 6.99743 16.592 7.00372C16.6937 7.00402 16.8201 7.05853 16.8929 7.13072C18.2188 8.44952 19.5402 9.77311 20.8548 11.1036C20.9362 11.186 20.9929 11.333 20.9929 11.4501C21.0003 14.5667 21.0027 17.6835 20.9962 20.8001C20.9941 21.8505 20.2432 22.6236 19.2011 22.6811C19.1633 22.6832 19.1254 22.6856 19.0872 22.6856C16.3638 22.6859 13.6404 22.6865 10.917 22.6853C10.192 22.685 9.63165 22.3779 9.2523 21.754C9.05726 21.4336 8.99941 21.0777 9 20.7054C9.00299 18.7492 9.0015 16.7933 9.0015 14.8372ZM20.256 11.7814C20.1805 11.7814 20.1224 11.7814 20.0639 11.7814C19.4293 11.7814 18.795 11.7826 18.1603 11.7811C17.0471 11.7781 16.2418 10.9715 16.2386 9.85488C16.2368 9.2121 16.2383 8.56933 16.2383 7.92655C16.2383 7.86904 16.2383 7.81153 16.2383 7.73965C16.1571 7.73965 16.0984 7.73965 16.0396 7.73965C14.3475 7.73965 12.6554 7.73935 10.9632 7.73965C10.2084 7.73995 9.74199 8.20361 9.74169 8.95901C9.7408 12.881 9.7405 16.8026 9.74169 20.7246C9.74199 21.471 10.2072 21.9338 10.9534 21.9338C13.6541 21.9344 16.3552 21.9344 19.0559 21.9326C19.1743 21.9326 19.2963 21.9266 19.4102 21.8981C19.9485 21.7645 20.2548 21.3332 20.2548 20.7165C20.2554 17.8024 20.2551 14.8884 20.2551 11.974C20.256 11.9165 20.256 11.8581 20.256 11.7814ZM16.9847 8.30095C16.9847 8.86136 16.9788 9.3999 16.9865 9.93845C16.994 10.4701 17.3647 10.9071 17.8869 11.0065C18.0133 11.0305 18.1451 11.0317 18.2749 11.0326C18.7493 11.0356 19.2241 11.0338 19.6825 11.0338C18.7887 10.1283 17.8952 9.22319 16.9847 8.30095Z" fill="#EFEFF4"/>
<path d="M15.0022 19.1087C16.1894 19.1087 17.3767 19.1081 18.5642 19.109C18.8344 19.1093 19.0089 19.2759 18.9901 19.5095C18.9755 19.691 18.8434 19.8285 18.6549 19.853C18.6015 19.8599 18.5466 19.8578 18.4924 19.8578C16.1665 19.8581 13.8406 19.8581 11.5147 19.8572C11.4396 19.8572 11.3618 19.856 11.2896 19.8378C11.1142 19.7934 11.0042 19.6365 11.0143 19.4625C11.0248 19.2821 11.1607 19.1348 11.3427 19.1123C11.396 19.1057 11.4509 19.1084 11.5052 19.1084C12.671 19.1087 13.8367 19.1087 15.0022 19.1087Z" fill="#EFEFF4"/>
<path d="M15.0034 17.0246C13.8162 17.0246 12.6293 17.0252 11.442 17.024C11.2013 17.0237 11.0603 16.9201 11.0227 16.7233C10.983 16.5172 11.1137 16.3243 11.3197 16.2926C11.3889 16.2818 11.4602 16.2833 11.5306 16.2833C13.8451 16.283 16.1597 16.283 18.4742 16.283C18.5338 16.283 18.5938 16.2815 18.6528 16.2875C18.8541 16.3081 18.9934 16.4624 18.9916 16.6577C18.9895 16.8539 18.8464 17.006 18.646 17.0216C18.5866 17.0261 18.5267 17.0243 18.4673 17.0243C17.3126 17.0246 16.1579 17.0246 15.0034 17.0246Z" fill="#EFEFF4"/>
<path d="M13.3943 13.4555C14.0498 13.4555 14.7053 13.4535 15.3605 13.4564C15.665 13.4579 15.8502 13.7045 15.75 13.9647C15.6907 14.119 15.5594 14.2032 15.3626 14.2041C14.9293 14.2062 14.496 14.2047 14.0626 14.2047C13.185 14.2047 12.3076 14.2062 11.4299 14.2038C11.1439 14.2032 10.9673 13.9962 11.0273 13.7428C11.0711 13.558 11.2155 13.4561 11.4442 13.4558C12.0943 13.4546 12.7442 13.4555 13.3943 13.4555Z" fill="#EFEFF4"/>
</svg>
